<svg xmlns="http://www.w3.org/2000/svg" width="32" height="32" fill="none"><path fill="#2684FF" d="M27.006 4H15.45a5.21 5.21 0 0 0 5.212 5.211h2.125v2.058A5.21 5.21 0 0 0 28 16.48V4.994A.995.995 0 0 0 27.006 4Z"></path><path fill="url(#a)" d="M21.28 9.76H9.726a5.21 5.21 0 0 0 5.211 5.211h2.126v2.058a5.21 5.21 0 0 0 5.211 5.211V10.754a.995.995 0 0 0-.994-.994Z"></path><path fill="url(#b)" d="M15.554 15.52H4a5.21 5.21 0 0 0 5.211 5.211h2.126v2.058A5.21 5.21 0 0 0 16.55 28V16.514a.995.995 0 0 0-.995-.994Z"></path><defs><linearGradient id="a" x1="22.034" x2="17.118" y1="9.773" y2="14.842" gradientUnits="userSpaceOnUse"><stop offset=".176" stop-color="#0052CC"></stop><stop offset="1" stop-color="#2684FF"></stop></linearGradient><linearGradient id="b" x1="16.641" x2="10.957" y1="15.564" y2="21.094" gradientUnits="userSpaceOnUse"><stop offset=".176" stop-color="#0052CC"></stop><stop offset="1" stop-color="#2684FF"></stop></linearGradient></defs></svg>