<svg xmlns="http://www.w3.org/2000/svg" id="fe3d76f5-46b5-45da-a5bd-d5567e35d175" data-name="Layer 1" viewBox="0 0 52.918 60.606"><title>icon-helix-core</title><path d="M567.071,368.805a1.63,1.63,0,0,0-.735,1.273v28.855a1.632,1.632,0,0,0,.735,1.273l24.989,14.427a1.627,1.627,0,0,0,1.47,0l24.989-14.427a1.632,1.632,0,0,0,.735-1.273V370.078a1.63,1.63,0,0,0-.735-1.273L593.53,354.378a1.627,1.627,0,0,0-1.47,0Z" transform="translate(-566.336 -354.203)" fill="#f1f1f2"></path><path d="M597.926,386.511h-9.7a2.084,2.084,0,1,1,0-4.167h9.7a2.084,2.084,0,1,1,0,4.167Z" transform="translate(-566.336 -354.203)" fill="#00aeef"></path><path d="M607.031,384.967c.052-1.139.88-6.873-9.032-12.321a19.07,19.07,0,0,1-3.055,3.053c.112.09,1.78,1.108,1.913,1.175,6.086,3.067,6.033,7.446,6.013,7.867l-.038.083.031.24c-.01.382-.27,3.606-5.915,6.9-7.374,4.309-8.665,7.969-8.849,8.659l4.028,1.073a.6.6,0,0,1-.022.073,7.353,7.353,0,0,1,1.649-2.241l6.663,3.773a2.084,2.084,0,0,0,2.054-3.627l-5.245-2.969c.55-.37,1.154-.751,1.824-1.142C606.683,391.107,607.05,386.086,607.031,384.967Z" transform="translate(-566.336 -354.203)" fill="#00aeef"></path><path d="M579.123,384.044c-.052,1.139-.88,6.873,9.032,12.321a19.07,19.07,0,0,1,3.055-3.053c-.112-.09-1.78-1.108-1.913-1.175-6.086-3.067-6.033-7.446-6.013-7.867l.038-.084-.031-.239c.01-.382.27-3.606,5.915-6.9,7.374-4.309,8.665-7.969,8.849-8.659l-4.028-1.073a.6.6,0,0,1,.022-.073,7.353,7.353,0,0,1-1.649,2.241l-6.663-3.773a2.084,2.084,0,0,0-2.054,3.627l5.245,2.969c-.55.37-1.154.751-1.824,1.142C579.471,377.9,579.1,382.925,579.123,384.044Z" transform="translate(-566.336 -354.203)" fill="#00aeef"></path></svg>