<svg xmlns="http://www.w3.org/2000/svg" id="Layer_2" data-name="Layer 2" viewBox="0 0 16 12"><defs><style>      .cls-1, .cls-2 {        fill: #fff;      }      .cls-2 {        isolation: isolate;        opacity: .5;      }    </style></defs><g id="Layer_1-2" data-name="Layer 1"><path class="cls-2" d="M12,3v-1h-4c-.6,0-1,.5-1,1v3h-3v1h3v3c0,.6,.5,1,1,1h4v-1h-3.4c-.3,0-.6-.3-.6-.6V3.6c0-.3,.3-.6,.6-.6h3.4Z"></path><path class="cls-1" d="M16,1V3c0,.6-.4,1-1,1h-3c-.6,0-1-.4-1-1V1c0-.6,.4-1,1-1h3c.6,0,1,.4,1,1Z"></path><path class="cls-1" d="M16,9v2c0,.6-.4,1-1,1h-3c-.6,0-1-.4-1-1v-2c0-.6,.4-1,1-1h3c.6,0,1,.4,1,1Z"></path><path class="cls-1" d="M5,5v2c0,.6-.4,1-1,1H1c-.6,0-1-.4-1-1v-2c0-.6,.4-1,1-1h3c.6,0,1,.4,1,1Z"></path></g></svg>