<svg xmlns="http://www.w3.org/2000/svg" width="32" height="32" viewBox="0 0 32 32" fill="none"><path d="M4.873 21.557c-.254.399-.544.87-.761 1.233a.765.765 0 0 0 .253 1.052l4.966 3.046a.764.764 0 0 0 1.051-.254c.181-.326.435-.761.725-1.233 1.957-3.227 3.95-2.865 7.503-1.16l4.929 2.321a.77.77 0 0 0 1.015-.363l2.356-5.331c.181-.363 0-.834-.363-1.016a152.694 152.694 0 0 1-4.929-2.357c-6.705-3.228-12.396-3.01-16.745 4.062Z" fill="url(#a)"></path><path d="M27.127 9.443a59.1 59.1 0 0 0 .762-1.233.765.765 0 0 0-.254-1.052l-4.966-3.046a.764.764 0 0 0-1.05.254c-.182.326-.436.761-.726 1.233-1.957 3.228-3.95 2.865-7.503 1.16L8.461 4.44a.77.77 0 0 0-1.015.362l-2.356 5.33c-.18.363 0 .834.363 1.016 1.05.471 3.117 1.45 4.93 2.357 6.704 3.192 12.395 3.01 16.744-4.062Z" fill="url(#b)"></path><defs><linearGradient id="a" x1="26.791" y1="28.467" x2="11.792" y2="19.855" gradientUnits="userSpaceOnUse"><stop stop-color="#0052CC"></stop><stop offset=".918" stop-color="#2380FB"></stop><stop offset="1" stop-color="#2684FF"></stop></linearGradient><linearGradient id="b" x1="5.209" y1="2.523" x2="20.208" y2="11.136" gradientUnits="userSpaceOnUse"><stop stop-color="#0052CC"></stop><stop offset=".918" stop-color="#2380FB"></stop><stop offset="1" stop-color="#2684FF"></stop></linearGradient></defs></svg>